<svg width="194" height="162" viewBox="0 0 194 162" fill="none" xmlns="http://www.w3.org/2000/svg">
<rect y="128.366" width="148.418" height="20" rx="10" transform="rotate(-58.4208 0 128.366)" fill="url(#paint0_linear_6_2)"/>
<rect x="19.9997" y="151.185" width="90.4247" height="20" rx="10" transform="rotate(-58.4208 19.9997 151.185)" fill="url(#paint1_linear_6_2)"/>
<rect x="63.9997" y="76.7122" width="90.4247" height="20" rx="10" fill="url(#paint2_linear_6_2)"/>
<rect x="103" y="17.7122" width="90.4247" height="20" rx="10" fill="url(#paint3_linear_6_2)"/>
<rect x="88.1342" width="75.133" height="20" rx="10" transform="rotate(66.7402 88.1342 0)" fill="url(#paint4_linear_6_2)"/>
<rect x="127.374" y="94.7122" width="44.5275" height="20" rx="10" transform="rotate(66.7402 127.374 94.7122)" fill="url(#paint5_linear_6_2)"/>
<path d="M78.4997 54.7122L93.6551 80.9622H63.3442L78.4997 54.7122Z" fill="url(#paint6_linear_6_2)"/>
<defs>
<linearGradient id="paint0_linear_6_2" x1="20.7176" y1="136.407" x2="152.761" y2="150.527" gradientUnits="userSpaceOnUse">
<stop stop-color="#0EDFCF"/>
<stop offset="1" stop-color="#30B1E0"/>
</linearGradient>
<linearGradient id="paint1_linear_6_2" x1="32.622" y1="159.227" x2="113.646" y2="164.505" gradientUnits="userSpaceOnUse">
<stop stop-color="#0EDFCF"/>
<stop offset="1" stop-color="#30B1E0"/>
</linearGradient>
<linearGradient id="paint2_linear_6_2" x1="76.622" y1="84.7538" x2="157.646" y2="90.0326" gradientUnits="userSpaceOnUse">
<stop stop-color="#0EDFCF"/>
<stop offset="1" stop-color="#30B1E0"/>
</linearGradient>
<linearGradient id="paint3_linear_6_2" x1="115.622" y1="25.7538" x2="196.646" y2="31.0326" gradientUnits="userSpaceOnUse">
<stop stop-color="#0EDFCF"/>
<stop offset="1" stop-color="#30B1E0"/>
</linearGradient>
<linearGradient id="paint4_linear_6_2" x1="98.622" y1="8.04164" x2="166.032" y2="11.6908" gradientUnits="userSpaceOnUse">
<stop stop-color="#0EDFCF"/>
<stop offset="1" stop-color="#30B1E0"/>
</linearGradient>
<linearGradient id="paint5_linear_6_2" x1="133.59" y1="102.754" x2="173.616" y2="104.038" gradientUnits="userSpaceOnUse">
<stop stop-color="#0EDFCF"/>
<stop offset="1" stop-color="#30B1E0"/>
</linearGradient>
<linearGradient id="paint6_linear_6_2" x1="65.8853" y1="68.7851" x2="97.3733" y2="69.2388" gradientUnits="userSpaceOnUse">
<stop stop-color="#0EDFCF"/>
<stop offset="1" stop-color="#30B1E0"/>
</linearGradient>
</defs>
</svg>
